<mxfile host="app.diagrams.net" modified="2021-09-08T16:21:44.729Z" agent="5.0 (Windows NT 10.0; Win64; x64) AppleWebKit/537.36 (KHTML, like Gecko) Chrome/92.0.4515.159 Safari/537.36" etag="oQE_pDiaGsP8PcBwyciy" version="15.1.0" type="github">
  <diagram name="Page-1" id="e3a06f82-3646-2815-327d-82caf3d4e204">
    <mxGraphModel dx="6944" dy="1923" grid="1" gridSize="10" guides="1" tooltips="1" connect="1" arrows="1" fold="1" page="1" pageScale="1.5" pageWidth="1169" pageHeight="826" background="none" math="0" shadow="0">
      <root>
        <mxCell id="0" style=";html=1;" />
        <mxCell id="1" style=";html=1;" parent="0" />
        <mxCell id="6a7d8f32e03d9370-62" value="MGL: Portal Architecture" style="text;strokeColor=none;fillColor=none;html=1;fontSize=24;fontStyle=1;verticalAlign=middle;align=center;" parent="1" vertex="1">
          <mxGeometry x="294.17714285714294" width="1394" height="60.266666666666666" as="geometry" />
        </mxCell>
        <mxCell id="vWLtctp0Y2EUvDG1c7CQ-7" value="&lt;b&gt;&lt;font style=&quot;font-size: 18px&quot;&gt;genomics-clinical Subscription&lt;/font&gt;&lt;/b&gt;" style="text;html=1;strokeColor=none;fillColor=none;align=center;verticalAlign=middle;whiteSpace=wrap;rounded=0;" parent="1" vertex="1">
          <mxGeometry x="204.18190476190478" y="129.46333333333334" width="728.5714285714287" height="60.266666666666666" as="geometry" />
        </mxCell>
        <mxCell id="vWLtctp0Y2EUvDG1c7CQ-11" value="&lt;font style=&quot;font-size: 18px&quot;&gt;&lt;b&gt;Genomics Virtual Network&lt;/b&gt;&lt;/font&gt;" style="text;html=1;strokeColor=none;fillColor=none;align=center;verticalAlign=middle;whiteSpace=wrap;rounded=0;" parent="1" vertex="1">
          <mxGeometry x="-1370.002380952381" y="230.00333333333333" width="307.61904761904765" height="30.133333333333333" as="geometry" />
        </mxCell>
        <mxCell id="vWLtctp0Y2EUvDG1c7CQ-13" value="&lt;font style=&quot;font-size: 14px&quot;&gt;Portal Subnet&lt;/font&gt;" style="text;html=1;strokeColor=none;fillColor=none;align=center;verticalAlign=middle;whiteSpace=wrap;rounded=0;" parent="1" vertex="1">
          <mxGeometry x="-1140" y="160.0003851714902" width="145.82" height="34.27410367631373" as="geometry" />
        </mxCell>
        <mxCell id="vWLtctp0Y2EUvDG1c7CQ-38" value="&lt;font style=&quot;font-size: 14px&quot;&gt;Port 443&lt;/font&gt;" style="text;html=1;strokeColor=none;fillColor=none;align=center;verticalAlign=middle;whiteSpace=wrap;rounded=0;" parent="1" vertex="1">
          <mxGeometry x="-1299.995238095238" y="159.9966666666667" width="64.76190476190477" height="30.133333333333333" as="geometry" />
        </mxCell>
        <mxCell id="rg4Ka3kV1G-TsTbr1ID1-2" style="edgeStyle=orthogonalEdgeStyle;rounded=0;orthogonalLoop=1;jettySize=auto;html=1;exitX=0.5;exitY=1;exitDx=0;exitDy=0;entryX=0.5;entryY=0;entryDx=0;entryDy=0;" parent="1" edge="1">
          <mxGeometry relative="1" as="geometry">
            <mxPoint x="-1530.0014285714283" y="90.00000000000009" as="sourcePoint" />
            <mxPoint x="-1131.2499999999998" y="132.80333333333337" as="targetPoint" />
          </mxGeometry>
        </mxCell>
        <mxCell id="vWLtctp0Y2EUvDG1c7CQ-28" style="edgeStyle=orthogonalEdgeStyle;rounded=0;orthogonalLoop=1;jettySize=auto;html=1;exitX=0.5;exitY=1;exitDx=0;exitDy=0;entryX=0.5;entryY=0;entryDx=0;entryDy=0;endArrow=classic;endFill=1;startArrow=classic;startFill=1;" parent="1" edge="1">
          <mxGeometry relative="1" as="geometry">
            <mxPoint x="-1430.001428571428" y="129.99666666666656" as="sourcePoint" />
            <mxPoint x="-1430.0014285714283" y="220.39666666666665" as="targetPoint" />
          </mxGeometry>
        </mxCell>
        <mxCell id="vWLtctp0Y2EUvDG1c7CQ-37" value="&lt;font style=&quot;font-size: 14px&quot;&gt;Private Endpoint&lt;/font&gt;" style="text;html=1;strokeColor=none;fillColor=none;align=center;verticalAlign=middle;whiteSpace=wrap;rounded=0;" parent="1" vertex="1">
          <mxGeometry x="-1069.997619047619" y="79.99666666666667" width="178.09523809523816" height="30.133333333333333" as="geometry" />
        </mxCell>
        <mxCell id="vWLtctp0Y2EUvDG1c7CQ-6" value="" style="rounded=1;whiteSpace=wrap;html=1;strokeColor=#6c8ebf;fillColor=#deebf7;" parent="1" vertex="1">
          <mxGeometry x="294.17999999999995" y="178.73" width="1000" height="1031" as="geometry" />
        </mxCell>
        <mxCell id="vWLtctp0Y2EUvDG1c7CQ-10" value="" style="rounded=1;whiteSpace=wrap;html=1;strokeColor=#82b366;fillColor=#DCF0DB;" parent="1" vertex="1">
          <mxGeometry x="-2890" y="1330.0033333333333" width="1489.5238095238099" height="1009.4666666666666" as="geometry" />
        </mxCell>
        <mxCell id="tGYNeZP_cqa0wACuk-C2-67" style="edgeStyle=orthogonalEdgeStyle;rounded=0;orthogonalLoop=1;jettySize=auto;html=1;exitX=0;exitY=0.5;exitDx=0;exitDy=0;exitPerimeter=0;entryX=0;entryY=0;entryDx=946.0000000000001;entryDy=337.8975;entryPerimeter=0;strokeWidth=3;endArrow=none;endFill=0;" edge="1" parent="1" source="vWLtctp0Y2EUvDG1c7CQ-16" target="tGYNeZP_cqa0wACuk-C2-5">
          <mxGeometry relative="1" as="geometry" />
        </mxCell>
        <mxCell id="vWLtctp0Y2EUvDG1c7CQ-16" value="&lt;font style=&quot;font-size: 14px&quot;&gt;&lt;b&gt;Azure Database for&lt;br&gt;PostgresSQL&lt;/b&gt;&lt;/font&gt;" style="shape=cylinder3;whiteSpace=wrap;html=1;boundedLbl=1;backgroundOutline=1;size=15;fillColor=#4472C4;" parent="1" vertex="1">
          <mxGeometry x="1515.1799999999998" y="709.73" width="185.71" height="193.56" as="geometry" />
        </mxCell>
        <mxCell id="vWLtctp0Y2EUvDG1c7CQ-35" value="&lt;font style=&quot;font-size: 14px&quot;&gt;&lt;b&gt;Azure Storage (Blob for DB backups)&lt;/b&gt;&lt;/font&gt;" style="shape=cylinder3;whiteSpace=wrap;html=1;boundedLbl=1;backgroundOutline=1;size=15;fillColor=#fff2cc;strokeColor=#d6b656;" parent="1" vertex="1">
          <mxGeometry x="-3170" y="810" width="185.71" height="204" as="geometry" />
        </mxCell>
        <mxCell id="tGYNeZP_cqa0wACuk-C2-36" value="" style="group" vertex="1" connectable="0" parent="1">
          <mxGeometry x="324.17999999999995" y="469.73333333333335" width="946" height="450.53" as="geometry" />
        </mxCell>
        <mxCell id="tGYNeZP_cqa0wACuk-C2-5" value="" style="verticalLabelPosition=bottom;verticalAlign=top;html=1;shape=mxgraph.basic.frame;dx=10;fillColor=#4472c4;" vertex="1" parent="tGYNeZP_cqa0wACuk-C2-36">
          <mxGeometry width="946" height="450.53" as="geometry" />
        </mxCell>
        <mxCell id="tGYNeZP_cqa0wACuk-C2-9" value="" style="verticalLabelPosition=bottom;verticalAlign=top;html=1;shape=mxgraph.basic.frame;dx=10;fillColor=#4472c4;" vertex="1" parent="tGYNeZP_cqa0wACuk-C2-36">
          <mxGeometry x="30" y="200" width="883.68" height="220.53" as="geometry" />
        </mxCell>
        <mxCell id="tGYNeZP_cqa0wACuk-C2-31" value="" style="group" vertex="1" connectable="0" parent="tGYNeZP_cqa0wACuk-C2-36">
          <mxGeometry x="275" y="225.26666666666665" width="390" height="170" as="geometry" />
        </mxCell>
        <mxCell id="tGYNeZP_cqa0wACuk-C2-20" value="" style="rounded=1;whiteSpace=wrap;html=1;shadow=0;glass=0;sketch=0;fillColor=#DEEBF7;strokeWidth=2;" vertex="1" parent="tGYNeZP_cqa0wACuk-C2-31">
          <mxGeometry width="390" height="170" as="geometry" />
        </mxCell>
        <mxCell id="tGYNeZP_cqa0wACuk-C2-19" value="" style="group" vertex="1" connectable="0" parent="tGYNeZP_cqa0wACuk-C2-31">
          <mxGeometry x="35" y="40" width="320" height="120" as="geometry" />
        </mxCell>
        <mxCell id="rg4Ka3kV1G-TsTbr1ID1-1" value="&lt;b&gt;&lt;font style=&quot;font-size: 14px&quot;&gt;Portal Client Service&lt;br&gt;(React JS)&lt;br&gt;&lt;/font&gt;&lt;/b&gt;" style="whiteSpace=wrap;html=1;aspect=fixed;strokeColor=#d6b656;fillColor=#8FAADC;" parent="tGYNeZP_cqa0wACuk-C2-19" vertex="1">
          <mxGeometry x="10" y="10.00333333333333" width="103.32" height="103.32" as="geometry" />
        </mxCell>
        <mxCell id="rg4Ka3kV1G-TsTbr1ID1-4" value="&lt;b&gt;&lt;font style=&quot;font-size: 14px&quot;&gt;Mail Server Service&lt;br&gt;(Postfix)&lt;br&gt;&lt;/font&gt;&lt;/b&gt;" style="whiteSpace=wrap;html=1;aspect=fixed;fillColor=#8FAADC;" parent="tGYNeZP_cqa0wACuk-C2-19" vertex="1">
          <mxGeometry x="110" y="10.00333333333333" width="103.32" height="103.32" as="geometry" />
        </mxCell>
        <mxCell id="vWLtctp0Y2EUvDG1c7CQ-14" value="&lt;b&gt;&lt;font style=&quot;font-size: 14px&quot;&gt;Portal Server Service&lt;br&gt;(Ruby)&lt;br&gt;&lt;/font&gt;&lt;/b&gt;" style="whiteSpace=wrap;html=1;aspect=fixed;fillColor=#8FAADC;" parent="tGYNeZP_cqa0wACuk-C2-19" vertex="1">
          <mxGeometry x="209.9999999999999" y="10.00333333333333" width="103.32" height="103.32" as="geometry" />
        </mxCell>
        <mxCell id="tGYNeZP_cqa0wACuk-C2-13" value="" style="verticalLabelPosition=bottom;verticalAlign=top;html=1;shape=mxgraph.basic.rounded_frame;dx=10;fillColor=#4472c4;" vertex="1" parent="tGYNeZP_cqa0wACuk-C2-19">
          <mxGeometry width="320" height="120" as="geometry" />
        </mxCell>
        <mxCell id="tGYNeZP_cqa0wACuk-C2-21" value="&lt;font style=&quot;font-size: 15px&quot;&gt;&lt;b&gt;Worker Node&lt;/b&gt;&lt;/font&gt;" style="text;html=1;strokeColor=none;fillColor=none;align=center;verticalAlign=middle;whiteSpace=wrap;rounded=0;shadow=0;glass=0;sketch=0;" vertex="1" parent="tGYNeZP_cqa0wACuk-C2-31">
          <mxGeometry x="40" y="10" width="310" height="20" as="geometry" />
        </mxCell>
        <mxCell id="tGYNeZP_cqa0wACuk-C2-32" value="&lt;font style=&quot;font-size: 18px&quot;&gt;&lt;b&gt;HAProxy-Ingress&lt;/b&gt;&lt;/font&gt;" style="rounded=0;whiteSpace=wrap;html=1;shadow=0;glass=0;sketch=0;fillColor=#8faadc;" vertex="1" parent="tGYNeZP_cqa0wACuk-C2-36">
          <mxGeometry x="30" y="19.99666666666667" width="870" height="100" as="geometry" />
        </mxCell>
        <mxCell id="tGYNeZP_cqa0wACuk-C2-34" value="&lt;font size=&quot;1&quot;&gt;&lt;b style=&quot;font-size: 31px&quot;&gt;AKS&lt;/b&gt;&lt;/font&gt;" style="text;html=1;strokeColor=none;fillColor=none;align=center;verticalAlign=middle;whiteSpace=wrap;rounded=0;shadow=0;glass=0;sketch=0;" vertex="1" parent="tGYNeZP_cqa0wACuk-C2-36">
          <mxGeometry x="410" y="139.99666666666667" width="120" height="40" as="geometry" />
        </mxCell>
        <mxCell id="tGYNeZP_cqa0wACuk-C2-37" value="Portal UI Port 3000" style="text;strokeColor=none;fillColor=none;html=1;fontSize=24;fontStyle=1;verticalAlign=middle;align=center;rounded=0;shadow=0;glass=0;sketch=0;" vertex="1" parent="1">
          <mxGeometry x="-1180" y="1150" width="100" height="40" as="geometry" />
        </mxCell>
        <mxCell id="tGYNeZP_cqa0wACuk-C2-38" value="" style="endArrow=none;dashed=1;html=1;strokeWidth=3;" edge="1" parent="1">
          <mxGeometry width="50" height="50" relative="1" as="geometry">
            <mxPoint x="1384.1799999999998" y="1429.73" as="sourcePoint" />
            <mxPoint x="1384.1799999999998" y="109.73" as="targetPoint" />
          </mxGeometry>
        </mxCell>
        <mxCell id="tGYNeZP_cqa0wACuk-C2-39" value="Azure PaaS Boundary" style="text;strokeColor=none;fillColor=none;html=1;fontSize=24;fontStyle=1;verticalAlign=middle;align=center;rounded=0;shadow=0;glass=0;sketch=0;rotation=-90;" vertex="1" parent="1">
          <mxGeometry x="1194.1799999999998" y="610" width="440" height="40" as="geometry" />
        </mxCell>
        <mxCell id="tGYNeZP_cqa0wACuk-C2-44" value="" style="endArrow=none;dashed=1;html=1;strokeWidth=3;" edge="1" parent="1">
          <mxGeometry width="50" height="50" relative="1" as="geometry">
            <mxPoint x="1824.1799999999998" y="1429.73" as="sourcePoint" />
            <mxPoint x="1824.1799999999998" y="99.73" as="targetPoint" />
          </mxGeometry>
        </mxCell>
        <mxCell id="tGYNeZP_cqa0wACuk-C2-45" value="PSJH Firewall" style="text;strokeColor=none;fillColor=none;html=1;fontSize=24;fontStyle=1;verticalAlign=middle;align=center;rounded=0;shadow=0;glass=0;sketch=0;rotation=-90;" vertex="1" parent="1">
          <mxGeometry x="1634.1799999999998" y="619.73" width="440" height="40" as="geometry" />
        </mxCell>
        <mxCell id="tGYNeZP_cqa0wACuk-C2-46" value="" style="endArrow=none;dashed=1;html=1;strokeWidth=3;" edge="1" parent="1">
          <mxGeometry width="50" height="50" relative="1" as="geometry">
            <mxPoint x="20.17999999999995" y="1439.73" as="sourcePoint" />
            <mxPoint x="19.999999999999886" y="90" as="targetPoint" />
          </mxGeometry>
        </mxCell>
        <mxCell id="tGYNeZP_cqa0wACuk-C2-47" value="PSJH Firewall" style="text;strokeColor=none;fillColor=none;html=1;fontSize=24;fontStyle=1;verticalAlign=middle;align=center;rounded=0;shadow=0;glass=0;sketch=0;rotation=-90;" vertex="1" parent="1">
          <mxGeometry x="-170.0000000000001" y="610" width="440" height="40" as="geometry" />
        </mxCell>
        <mxCell id="tGYNeZP_cqa0wACuk-C2-48" value="" style="endArrow=none;dashed=1;html=1;strokeWidth=3;" edge="1" parent="1">
          <mxGeometry width="50" height="50" relative="1" as="geometry">
            <mxPoint x="74.17999999999995" y="1289.73" as="sourcePoint" />
            <mxPoint x="1334.1799999999998" y="1289.73" as="targetPoint" />
          </mxGeometry>
        </mxCell>
        <mxCell id="tGYNeZP_cqa0wACuk-C2-49" value="On-Prem Boundary" style="text;strokeColor=none;fillColor=none;html=1;fontSize=24;fontStyle=1;verticalAlign=middle;align=center;rounded=0;shadow=0;glass=0;sketch=0;rotation=0;" vertex="1" parent="1">
          <mxGeometry x="574.18" y="1289.73" width="440" height="40" as="geometry" />
        </mxCell>
        <mxCell id="tGYNeZP_cqa0wACuk-C2-50" value="Portal Backend Port 9292" style="text;strokeColor=none;fillColor=none;html=1;fontSize=24;fontStyle=1;verticalAlign=middle;align=center;rounded=0;shadow=0;glass=0;sketch=0;" vertex="1" parent="1">
          <mxGeometry x="-1180" y="1210" width="100" height="40" as="geometry" />
        </mxCell>
        <mxCell id="tGYNeZP_cqa0wACuk-C2-52" value="" style="rounded=1;whiteSpace=wrap;html=1;strokeColor=#6c8ebf;fillColor=#deebf7;" vertex="1" parent="1">
          <mxGeometry x="294.17999999999995" y="1359.73" width="970" height="420" as="geometry" />
        </mxCell>
        <mxCell id="tGYNeZP_cqa0wACuk-C2-53" value="" style="group" vertex="1" connectable="0" parent="1">
          <mxGeometry x="-2970" y="250.00333333333333" width="946" height="450.53" as="geometry" />
        </mxCell>
        <mxCell id="tGYNeZP_cqa0wACuk-C2-54" value="" style="verticalLabelPosition=bottom;verticalAlign=top;html=1;shape=mxgraph.basic.frame;dx=10;fillColor=#4472c4;" vertex="1" parent="tGYNeZP_cqa0wACuk-C2-53">
          <mxGeometry width="946" height="450.53" as="geometry" />
        </mxCell>
        <mxCell id="tGYNeZP_cqa0wACuk-C2-55" value="" style="verticalLabelPosition=bottom;verticalAlign=top;html=1;shape=mxgraph.basic.frame;dx=10;fillColor=#4472c4;" vertex="1" parent="tGYNeZP_cqa0wACuk-C2-53">
          <mxGeometry x="30" y="200" width="883.68" height="220.53" as="geometry" />
        </mxCell>
        <mxCell id="tGYNeZP_cqa0wACuk-C2-56" value="" style="group" vertex="1" connectable="0" parent="tGYNeZP_cqa0wACuk-C2-53">
          <mxGeometry x="275" y="225.26666666666665" width="390" height="170" as="geometry" />
        </mxCell>
        <mxCell id="tGYNeZP_cqa0wACuk-C2-57" value="" style="rounded=1;whiteSpace=wrap;html=1;shadow=0;glass=0;sketch=0;fillColor=#DEEBF7;strokeWidth=2;" vertex="1" parent="tGYNeZP_cqa0wACuk-C2-56">
          <mxGeometry width="390" height="170" as="geometry" />
        </mxCell>
        <mxCell id="tGYNeZP_cqa0wACuk-C2-58" value="" style="group" vertex="1" connectable="0" parent="tGYNeZP_cqa0wACuk-C2-56">
          <mxGeometry x="35" y="40" width="320" height="120" as="geometry" />
        </mxCell>
        <mxCell id="tGYNeZP_cqa0wACuk-C2-59" value="&lt;b&gt;&lt;font style=&quot;font-size: 14px&quot;&gt;Portal Client Service&lt;br&gt;(React JS)&lt;br&gt;&lt;/font&gt;&lt;/b&gt;" style="whiteSpace=wrap;html=1;aspect=fixed;fillColor=#fff2cc;strokeColor=#d6b656;" vertex="1" parent="tGYNeZP_cqa0wACuk-C2-58">
          <mxGeometry x="10" y="10.00333333333333" width="103.32" height="103.32" as="geometry" />
        </mxCell>
        <mxCell id="tGYNeZP_cqa0wACuk-C2-60" value="&lt;b&gt;&lt;font style=&quot;font-size: 14px&quot;&gt;Mail Server Service&lt;br&gt;(Postfix)&lt;br&gt;&lt;/font&gt;&lt;/b&gt;" style="whiteSpace=wrap;html=1;aspect=fixed;fillColor=#fff2cc;strokeColor=#d6b656;" vertex="1" parent="tGYNeZP_cqa0wACuk-C2-58">
          <mxGeometry x="110" y="10.00333333333333" width="103.32" height="103.32" as="geometry" />
        </mxCell>
        <mxCell id="tGYNeZP_cqa0wACuk-C2-61" value="&lt;b&gt;&lt;font style=&quot;font-size: 14px&quot;&gt;Portal Server Service&lt;br&gt;(Ruby)&lt;br&gt;&lt;/font&gt;&lt;/b&gt;" style="whiteSpace=wrap;html=1;aspect=fixed;fillColor=#fff2cc;strokeColor=#d6b656;" vertex="1" parent="tGYNeZP_cqa0wACuk-C2-58">
          <mxGeometry x="209.9999999999999" y="10.00333333333333" width="103.32" height="103.32" as="geometry" />
        </mxCell>
        <mxCell id="tGYNeZP_cqa0wACuk-C2-62" value="" style="verticalLabelPosition=bottom;verticalAlign=top;html=1;shape=mxgraph.basic.rounded_frame;dx=10;fillColor=#4472c4;" vertex="1" parent="tGYNeZP_cqa0wACuk-C2-58">
          <mxGeometry width="320" height="120" as="geometry" />
        </mxCell>
        <mxCell id="tGYNeZP_cqa0wACuk-C2-63" value="&lt;font style=&quot;font-size: 15px&quot;&gt;&lt;b&gt;Worker Node&lt;/b&gt;&lt;/font&gt;" style="text;html=1;strokeColor=none;fillColor=none;align=center;verticalAlign=middle;whiteSpace=wrap;rounded=0;shadow=0;glass=0;sketch=0;" vertex="1" parent="tGYNeZP_cqa0wACuk-C2-56">
          <mxGeometry x="40" y="10" width="310" height="20" as="geometry" />
        </mxCell>
        <mxCell id="tGYNeZP_cqa0wACuk-C2-64" value="&lt;font style=&quot;font-size: 18px&quot;&gt;&lt;b&gt;HAProxy-Ingress&lt;/b&gt;&lt;/font&gt;" style="rounded=0;whiteSpace=wrap;html=1;shadow=0;glass=0;sketch=0;fillColor=#8faadc;" vertex="1" parent="tGYNeZP_cqa0wACuk-C2-53">
          <mxGeometry x="30" y="19.99666666666667" width="870" height="100" as="geometry" />
        </mxCell>
        <mxCell id="tGYNeZP_cqa0wACuk-C2-65" value="&lt;font size=&quot;1&quot;&gt;&lt;b style=&quot;font-size: 31px&quot;&gt;AKS&lt;/b&gt;&lt;/font&gt;" style="text;html=1;strokeColor=none;fillColor=none;align=center;verticalAlign=middle;whiteSpace=wrap;rounded=0;shadow=0;glass=0;sketch=0;" vertex="1" parent="tGYNeZP_cqa0wACuk-C2-53">
          <mxGeometry x="410" y="139.99666666666667" width="120" height="40" as="geometry" />
        </mxCell>
        <mxCell id="tGYNeZP_cqa0wACuk-C2-51" value="&lt;b&gt;&lt;font style=&quot;font-size: 23px&quot;&gt;ESX VMware&lt;/font&gt;&lt;/b&gt;" style="text;html=1;strokeColor=none;fillColor=none;align=center;verticalAlign=middle;whiteSpace=wrap;rounded=0;" vertex="1" parent="1">
          <mxGeometry x="424.17999999999995" y="1399.73" width="740" height="60.27" as="geometry" />
        </mxCell>
        <mxCell id="tGYNeZP_cqa0wACuk-C2-68" style="edgeStyle=orthogonalEdgeStyle;rounded=0;orthogonalLoop=1;jettySize=auto;html=1;exitX=0;exitY=0.5;exitDx=0;exitDy=0;entryX=0;entryY=0;entryDx=936.0000000000001;entryDy=117.6325;entryPerimeter=0;strokeWidth=3;endArrow=none;endFill=0;" edge="1" parent="1" source="tGYNeZP_cqa0wACuk-C2-66" target="tGYNeZP_cqa0wACuk-C2-5">
          <mxGeometry relative="1" as="geometry" />
        </mxCell>
        <mxCell id="tGYNeZP_cqa0wACuk-C2-66" value="&lt;font style=&quot;font-size: 15px&quot;&gt;Azure Storage (Blobs and Files)&lt;/font&gt;" style="shape=document;whiteSpace=wrap;html=1;boundedLbl=1;rounded=0;shadow=0;glass=0;sketch=0;strokeWidth=2;fillColor=#4472c4;" vertex="1" parent="1">
          <mxGeometry x="1515.1799999999998" y="369.73" width="230" height="160" as="geometry" />
        </mxCell>
        <mxCell id="tGYNeZP_cqa0wACuk-C2-69" value="&lt;font style=&quot;font-size: 14px&quot;&gt;Private Endpoint&lt;br&gt;Genomics Virtual Network&lt;/font&gt;" style="text;html=1;strokeColor=none;fillColor=none;align=center;verticalAlign=middle;whiteSpace=wrap;rounded=0;shadow=0;glass=0;sketch=0;" vertex="1" parent="1">
          <mxGeometry x="1402.75" y="379.73" width="100" height="70" as="geometry" />
        </mxCell>
        <mxCell id="tGYNeZP_cqa0wACuk-C2-70" value="&lt;font style=&quot;font-size: 14px&quot;&gt;Private Endpoint&lt;br&gt;Genomics Virtual Network&lt;/font&gt;" style="text;html=1;strokeColor=none;fillColor=none;align=center;verticalAlign=middle;whiteSpace=wrap;rounded=0;shadow=0;glass=0;sketch=0;" vertex="1" parent="1">
          <mxGeometry x="1402.75" y="809.73" width="100" height="70" as="geometry" />
        </mxCell>
        <mxCell id="tGYNeZP_cqa0wACuk-C2-71" value="Port 5432" style="text;html=1;align=center;verticalAlign=middle;resizable=0;points=[];autosize=1;strokeColor=none;fillColor=none;" vertex="1" parent="1">
          <mxGeometry x="1417.75" y="769.73" width="70" height="20" as="geometry" />
        </mxCell>
        <mxCell id="tGYNeZP_cqa0wACuk-C2-73" style="edgeStyle=orthogonalEdgeStyle;rounded=0;orthogonalLoop=1;jettySize=auto;html=1;exitX=0;exitY=0.5;exitDx=0;exitDy=0;endArrow=none;endFill=0;strokeWidth=3;" edge="1" parent="1" source="tGYNeZP_cqa0wACuk-C2-72">
          <mxGeometry relative="1" as="geometry">
            <mxPoint x="184.17999999999995" y="759.73" as="targetPoint" />
          </mxGeometry>
        </mxCell>
        <mxCell id="tGYNeZP_cqa0wACuk-C2-72" value="&lt;font style=&quot;font-size: 20px&quot;&gt;&lt;b&gt;NgsReporter&lt;/b&gt;&lt;/font&gt;" style="rounded=1;whiteSpace=wrap;html=1;shadow=0;glass=0;sketch=0;strokeColor=#000000;strokeWidth=2;fillColor=#4472C4;" vertex="1" parent="1">
          <mxGeometry x="604.18" y="1529.73" width="350" height="140" as="geometry" />
        </mxCell>
        <mxCell id="tGYNeZP_cqa0wACuk-C2-77" value="" style="endArrow=none;html=1;strokeWidth=3;entryX=-0.001;entryY=0.643;entryDx=0;entryDy=0;entryPerimeter=0;" edge="1" parent="1" target="tGYNeZP_cqa0wACuk-C2-5">
          <mxGeometry width="50" height="50" relative="1" as="geometry">
            <mxPoint x="184.17999999999995" y="759.73" as="sourcePoint" />
            <mxPoint x="274.17999999999995" y="759.73" as="targetPoint" />
          </mxGeometry>
        </mxCell>
        <mxCell id="tGYNeZP_cqa0wACuk-C2-78" value="&lt;font style=&quot;font-size: 14px&quot;&gt;Private Endpoint&lt;br&gt;Genomics Virtual Network&lt;/font&gt;" style="text;html=1;strokeColor=none;fillColor=none;align=center;verticalAlign=middle;whiteSpace=wrap;rounded=0;shadow=0;glass=0;sketch=0;" vertex="1" parent="1">
          <mxGeometry x="194.18000000000006" y="759.73" width="100" height="70" as="geometry" />
        </mxCell>
      </root>
    </mxGraphModel>
  </diagram>
</mxfile>
